<svg xmlns="http://www.w3.org/2000/svg" viewBox="0 0 512 512">
  <rect width="512" height="512" rx="96" fill="#0f172a"/>

  <!-- alça da caneca -->
  <path d="M 350 258 C 414 258 414 380 350 380" fill="none" stroke="#b45309" stroke-width="22" stroke-linecap="round"/>
  <path d="M 350 258 C 414 258 414 380 350 380" fill="none" stroke="#f59e0b" stroke-width="14" stroke-linecap="round"/>

  <!-- corpo da caneca -->
  <rect x="148" y="224" width="204" height="192" rx="14" fill="#f59e0b" stroke="#b45309" stroke-width="6"/>

  <!-- linhas do vidro -->
  <line x1="164" y1="284" x2="336" y2="284" stroke="#b45309" stroke-width="5" opacity="0.55"/>
  <line x1="164" y1="344" x2="336" y2="344" stroke="#b45309" stroke-width="5" opacity="0.55"/>

  <!-- bolhas -->
  <circle cx="196" cy="260" r="5" fill="#fef3c7" opacity="0.8"/>
  <circle cx="232" cy="310" r="4" fill="#fef3c7" opacity="0.7"/>
  <circle cx="300" cy="270" r="4" fill="#fef3c7" opacity="0.7"/>

  <!-- espuma -->
  <rect x="140" y="198" width="220" height="42" rx="21" fill="#fef3c7"/>
  <circle cx="160" cy="200" r="17" fill="#fef3c7"/>
  <circle cx="196" cy="194" r="20" fill="#fef3c7"/>
  <circle cx="234" cy="198" r="18" fill="#fef3c7"/>
  <circle cx="270" cy="193" r="19" fill="#fef3c7"/>
  <circle cx="306" cy="199" r="17" fill="#fef3c7"/>
  <circle cx="338" cy="204" r="14" fill="#fef3c7"/>
</svg>
